<svg height="512pt" viewBox="-76 0 512 512" width="512pt" xmlns="http://www.w3.org/2000/svg"><path d="m230.5 44.929688c35.148438-35.148438 91.929688-34.929688 91.929688-34.929688s-.210938 56.351562-35.359376 91.5c-25.75 25.75-63.101562 32.738281-81.242187 34.640625l-.296875.019531c-.679688-10.871094-2.621094-22.039062-5.742188-32.699218 4.492188-18.480469 13.332032-41.152344 30.710938-58.53125zm0 0" fill="#7dc288"/><path d="m205.53125 136.160156c.640625 9.878906.25 19.53125-1.203125 28.351563-9.796875 3.226562-18.257813 9.410156-24.316406 17.488281h-.011719c-2.851562-3.800781-6.230469-7.179688-10.019531-10.03125-.691407-44.238281-23.089844-95.367188-59.980469-119.96875h60c4.339844 6.222656 32.132812 29.855469 35.53125 84.160156zm0 0" fill="#c66752"/><path d="m350 212c0-27.609375-22.390625-50-50-50-16.351562 0-30.871094 7.851562-39.988281 20h-.011719c-9.121094-12.148438-23.640625-20-40-20-16.136719 0-30.757812 7.691406-39.988281 20h-.011719c-9.246094-12.328125-23.835938-20-40-20-16.351562 0-30.871094 7.851562-39.988281 20h-.011719c-9.121094-12.148438-23.640625-20-40-20-27.609375 0-50 22.390625-50 50s22.390625 50 50 50c-6.28125 8.359375-10 18.738281-10 30 0 27.609375 22.390625 50 50 50-6.28125 8.359375-10 18.738281-10 30 0 27.609375 22.390625 50 50 50-6.28125 8.359375-10 18.738281-10 30 0 27.609375 22.390625 50 50 50s50-22.390625 50-50c0-11.261719-3.71875-21.640625-10-30 27.609375 0 50-22.390625 50-50 0-11.261719-3.71875-21.640625-10-30 27.609375 0 50-22.390625 50-50 0-11.261719-3.71875-21.640625-10-30 27.609375 0 50-22.390625 50-50zm0 0" fill="#944866"/><path d="m287.070312 59.070312c3.910157-3.898437 3.910157-10.242187 0-14.140624-3.898437-3.910157-10.242187-3.910157-14.140624 0-3.910157 3.898437-3.910157 10.242187 0 14.140624 3.898437 3.910157 10.242187 3.910157 14.140624 0zm0 0"/><path d="m100.003906 167.28125c-10.890625-9.808594-24.953125-15.28125-40.003906-15.28125-33.085938 0-60 26.914062-60 60 0 27.621094 18.765625 50.925781 44.210938 57.878906-2.769532 6.96875-4.210938 14.429688-4.210938 22.121094 0 27.621094 18.765625 50.925781 44.210938 57.878906-2.769532 6.96875-4.210938 14.429688-4.210938 22.121094 0 27.621094 18.765625 50.925781 44.210938 57.878906-2.769532 6.96875-4.210938 14.429688-4.210938 22.121094 0 33.085938 26.914062 60 60 60s60-26.914062 60-60c0-7.691406-1.441406-15.152344-4.210938-22.121094 25.445313-6.953125 44.210938-30.257812 44.210938-57.878906 0-7.691406-1.441406-15.152344-4.210938-22.121094 25.445313-6.953125 44.210938-30.257812 44.210938-57.878906 0-7.691406-1.441406-15.152344-4.210938-22.121094 25.445313-6.953125 44.210938-30.257812 44.210938-57.878906 0-33.085938-26.914062-60-60-60-15.046875 0-29.105469 5.472656-39.996094 15.28125-10.890625-9.808594-24.953125-15.28125-40.003906-15.28125-1.453125 0-2.902344.058594-4.347656.164062.117187-2.382812.171875-4.796874.164062-7.242187 21.738282-3.363281 54.328125-12.355469 78.324219-36.351563 37.632813-37.628906 38.28125-96.0625 38.289063-98.53125.019531-5.523437-4.441407-10.0195308-9.960938-10.039062-2.449219.0273438-61.371094.191406-99.039062 37.859375-9.910157 9.90625-18.175782 22.390625-24.503907 36.824219-7.703125-14.480469-14.207031-20.160156-21.242187-29.085938-1.902344-2.28125-4.714844-3.597656-7.683594-3.597656h-60c-4.40625 0-8.292969 2.882812-9.570312 7.101562-1.277344 4.21875.355468 8.773438 4.023437 11.21875 27.882813 18.59375 48.800781 55.898438 54.183594 94.621094-5.949219-1.9375-12.214844-2.941406-18.636719-2.941406-15.046875 0-29.109375 5.476562-39.996094 15.28125zm39.996094 4.71875c10.078125 0 19.800781 3.671875 27.492188 10.972656-4.914063 8.835938-7.492188 18.726563-7.492188 29.027344 0 10.308594 2.582031 20.210938 7.503906 29.050781-7.378906 7.019531-17.089844 10.949219-27.503906 10.949219-22.589844 0-40-18.378906-40-40 0-8.734375 2.765625-17.03125 8.007812-23.996094 7.632813-10.171875 19.292969-16.003906 31.992188-16.003906zm67.503906 149.050781c-7.378906 7.019531-17.089844 10.949219-27.503906 10.949219-22.589844 0-40-18.378906-40-40 0-7.226562 1.898438-14.152344 5.515625-20.273438 12.949219-1.164062 24.933594-6.410156 34.488281-15.007812 6.960938 6.265625 15.214844 10.753906 24.199219 13.179688-2.765625 6.960937-4.203125 14.417968-4.203125 22.101562 0 10.308594 2.582031 20.210938 7.503906 29.050781zm-187.503906-109.050781c0-22.054688 17.945312-40 40-40 10.417969 0 20.132812 3.929688 27.503906 10.949219-4.921875 8.84375-7.503906 18.742187-7.503906 29.050781s2.582031 20.210938 7.503906 29.050781c-7.378906 7.019531-17.089844 10.949219-27.503906 10.949219-22.054688 0-40-17.945312-40-40zm40 80c0-7.226562 1.898438-14.152344 5.515625-20.273438 12.949219-1.164062 24.933594-6.410156 34.488281-15.007812 6.960938 6.265625 15.214844 10.753906 24.199219 13.179688-2.765625 6.960937-4.203125 14.417968-4.203125 22.101562 0 10.308594 2.582031 20.210938 7.503906 29.050781-7.378906 7.019531-17.089844 10.949219-27.503906 10.949219-22.054688 0-40-17.945312-40-40zm40 80c0-7.226562 1.898438-14.152344 5.515625-20.273438 12.949219-1.164062 24.933594-6.410156 34.488281-15.007812 6.960938 6.265625 15.214844 10.753906 24.199219 13.179688-2.765625 6.960937-4.203125 14.417968-4.203125 22.101562 0 10.308594 2.582031 20.210938 7.503906 29.050781-7.378906 7.019531-17.089844 10.949219-27.503906 10.949219-22.054688 0-40-17.945312-40-40zm80 120c-22.054688 0-40-17.945312-40-40 0-7.226562 1.898438-14.152344 5.515625-20.273438 12.949219-1.164062 24.933594-6.410156 34.488281-15.007812 9.546875 8.597656 21.53125 13.84375 34.480469 15.007812 3.617187 6.121094 5.515625 13.046876 5.515625 20.273438 0 22.054688-17.945312 40-40 40zm40-80c-22.589844 0-40-18.378906-40-40 0-7.226562 1.898438-14.152344 5.515625-20.273438 12.949219-1.164062 24.933594-6.410156 34.488281-15.007812 9.546875 8.597656 21.53125 13.84375 34.480469 15.007812 3.617187 6.121094 5.515625 13.046876 5.515625 20.273438 0 22.054688-17.945312 40-40 40zm40-80c-22.589844 0-40-18.378906-40-40 0-7.226562 1.898438-14.152344 5.515625-20.273438 12.949219-1.164062 24.933594-6.410156 34.488281-15.007812 9.546875 8.597656 21.53125 13.84375 34.480469 15.007812 3.617187 6.121094 5.515625 13.046876 5.515625 20.273438 0 22.054688-17.945312 40-40 40zm40-160c22.054688 0 40 17.945312 40 40s-17.945312 40-40 40c-22.589844 0-40-18.378906-40-40 0-8.734375 2.765625-17.03125 8-23.988281.003906-.003907.003906-.003907.007812-.007813 7.632813-10.171875 19.292969-16.003906 31.992188-16.003906zm-52.496094 10.949219c-4.921875 8.84375-7.503906 18.742187-7.503906 29.050781s2.582031 20.210938 7.503906 29.050781c-7.378906 7.019531-17.089844 10.949219-27.503906 10.949219-22.589844 0-40-18.378906-40-40 0-22.148438 17.980469-40 40-40 10.417969 0 20.132812 3.929688 27.503906 10.949219zm-9.933594-130.949219c22.964844-22.964844 56.925782-29.449219 74.078126-31.28125-1.929688 17.039062-8.601563 50.660156-31.648438 73.710938-16.804688 16.800781-39.183594 24.925781-57.136719 28.851562l35.925781-35.929688c3.90625-3.90625 3.90625-10.238281 0-14.140624-3.902343-3.90625-10.234374-3.90625-14.140624 0l-33.605469 33.605468c-.289063-1.160156-.59375-2.320312-.90625-3.472656 3.996093-15.316406 11.921875-35.832031 27.433593-51.34375zm-72.253906 10c1.863282 3.359375 27.097656 24.714844 30.234375 74.808594.464844 7.183594.34375 14.066406-.351562 20.550781-5.5625 2.519531-10.679688 5.859375-15.207031 9.921875-.054688-.050781-.109376-.101562-.164063-.152344-1.769531-37.300781-17.441406-77.632812-42.949219-105.128906zm0 0"/></svg>